<svg xmlns="http://www.w3.org/2000/svg" viewBox="0 0 602.85 608.89"><defs><style>.cls-1{fill:#fff;}</style></defs><g id="Layer_2" data-name="Layer 2"><g id="Layer_9" data-name="Layer 9"><path class="cls-1" d="M173.46,51.45c-.94,19.59-7.52,36.18-19.73,50.34-10,11.54-22.2,11.71-33.16,1.06C114,96.45,110.14,88.38,108,79.63c-1.84-7.54-2.87-15.27-4.31-23.19a35.8,35.8,0,0,0-20.78,12.4c-7.38,8.65-10.67,19.08-12.4,30-2.15,13.62-1.81,27.3-.09,41,.43,3.45,2.19,4.31,5.5,2.84,9.75-4.3,20.45-2.07,26.93,6.51,4,5.28,8.89,8.28,15.15,9.08,17,2.19,33.47.58,48.46-8.42A47,47,0,0,0,185.67,127c3.68-9,10.45-13.82,18.87-17.18,2.52-1,5.09-1.9,7.68-2.71,2-.61,3.06-1.88,2.67-3.85C210.8,82.43,203.06,64,182.37,54.29,179.59,53,176.47,52.39,173.46,51.45Z"/><path class="cls-1" d="M274.52,461.49c.63,3.35,1.25,6.69,2,10.66C268,462.1,211.4,300,211.39,285.43c1.16,1.45,2.14,2.24,2.57,3.26a34.55,34.55,0,0,0,8.57,12.11,30.72,30.72,0,0,1,9.89,18.6,69.7,69.7,0,0,0,10.64,28.46c3.28,5,6.19,10.23,9.33,15.31,4.64,7.5,9,15.06,10.94,23.84,1.41,6.23,7.49,8.83,13.43,6.47,2.8-1.11,4.45-3.15,3.63-6.08-5.14-18.57-4.67-37.89-7.83-56.72-1.2-7.18-3.28-14.07-8.15-19.61-10.33-11.75-14.77-25.81-17-40.92-1-7.08-2.67-14.07-4-21.12-.77-4.16-3.11-6.35-7.26-7.69-11.88-3.84-21.51,1-30.68,7.4-5.48,3.84-5.24,4.14-2.93,10.4,2.85,7.7,5.66,15.41,8.14,23.34-.2-.26-.34-.61-.61-.78-1.08-.68-2.19-1.3-3.29-1.94-.41,1.22-1.38,2.55-1.14,3.62,1.53,6.88,3,13.79,5.08,20.52,17.17,56.32,36.41,111.92,59,166.33a100.41,100.41,0,0,0,5.14,10.53c.51.9,2,1.24,3.07,1.83.53-1,1.68-2.22,1.5-3.12-1.28-6.08-2.83-12.09-4.29-18.13Z"/><path class="cls-1" d="M185.81,273.26c-4.9-16.2-9.64-32-14.51-47.74-.36-1.19-1.74-3.06-2.44-3a39.54,39.54,0,0,0-8.19,2.26c-.21.08,0,2,.37,3q7.74,22.3,15.64,44.58c.72,2,.58,3.19-1.2,4.61-3.71,3-4.65,6.76-3.75,11.6a723.3,723.3,0,0,0,35.44,125.85q10.82,28.27,23.12,56c4.45,10,10.44,19.23,16,28.69a8.67,8.67,0,0,0,9,4.56c3.27-.41,5.88-2.44,6.2-5.7.83-8.19-1.23-16-2.92-23.91l-.88,0c.07,1.71.18,3.41.22,5.12s.14,3.7,0,5.54a13.17,13.17,0,0,1-1.57,5.5,21.28,21.28,0,0,1-2.27-3.3c-10.88-24.75-22.06-49.38-32.46-74.34a643.52,643.52,0,0,1-31.73-98.5,150.79,150.79,0,0,1-2.69-17.35c-.18-1.54.78-3.2,1.22-4.8,1.35.92,2.71,1.82,4,2.77a8.61,8.61,0,0,1,1,1c-2.6-7.6-6.74-10.15-14.66-9.06.38-2.94,1.88-4.85,4.73-5.42s6.3-1.44,8.16,2a163.5,163.5,0,0,1,8,16c11,26.88,19.24,54.67,27.83,82.79L216,386.15c.76,2.14,1.43,4,2.18,6.14,4-1.4,7.84-2.68,11.61-4,2.39-.85,1.73-2.63,1.27-4.34-3.52-13.22-6.87-26.48-10.6-39.64-4.7-16.6-9.48-33.19-14.7-49.64-1.62-5.09-4.46-9.88-7.31-14.46S191.62,272.26,185.81,273.26Z"/><path class="cls-1" d="M106.8,213.57c7.63-8.72,16.4-13.44,26.75-14.57,8.43-.92,15.52,3.22,22.21,7.9a32.14,32.14,0,0,0,3.83,2c.49-1.62,1.37-3.23,1.4-4.86,0-2.8-.56-5.61-.67-8.43-.08-2.26-.3-4.7.41-6.77.63-1.82,2.19-4.14,3.8-4.6a6.47,6.47,0,0,1,5.63,1.88,29,29,0,0,1,4.81,9.39c1.86,6.41,4.08,7.7,10.4,5.2,6.66-2.64,13.35-5.18,20-7.74,4.57-1.74,5.62-4,3.33-8.24a84.78,84.78,0,0,1-9-28.38c-1-7.19-4.74-13.25-9.91-18.3-2.8-2.73-3.77-2.42-6.3.4-13.73,15.31-30.62,24.12-51.48,23.82-7.21-.11-14.42-1.32-21.6-2.31-2.53-.35-3.19,1-3.44,2.77-1,7.19-2.42,14.39-2.67,21.62-.28,7.89.51,15.82,1,23.73C105.42,209.75,106.2,211.41,106.8,213.57Z"/><path class="cls-1" d="M384,297.45c-1.19-.1-2.85-.59-3.11-.19a5,5,0,0,0-.71,3.55c2.09,8.2,4.09,16.44,6.62,24.51,13.78,43.93,28.8,87.43,46.46,130a100.32,100.32,0,0,0,4.84,9.95c.43.78,1.82,1,2.77,1.51.35-1,1.14-2.09,1-3a49,49,0,0,0-3.1-10.65l.38,4.65c-7.63-9.94-54.8-145.59-54-155.06.19.07.49.09.55.23,3,6.15,8,10.75,12.18,16a17.05,17.05,0,0,1,3.75,7.81c1.8,13.52,8.11,25,15.21,36.28,4.93,7.79,9.87,15.53,11.91,24.8,1.09,4.93,8.3,6.89,12.24,3.63,1-.81,1.95-2.75,1.66-3.83-4.25-15.85-3.81-32.31-6.54-48.34-1-6.12-3-11.84-7.14-16.55-8.11-9.28-11.77-20.34-13.57-32.26-.91-6-2.24-11.95-3.23-17.95-.76-4.64-3.3-7-7.92-8.12-9.6-2.38-17.26,1.66-24.49,6.87-5.36,3.86-4.24,3.83-2.39,8.15C379.83,285.37,381.82,291.58,384,297.45Z"/><path class="cls-1" d="M363.34,291.31c-4-13.29-7.87-26.28-11.85-39.23-.36-1.16-1.48-3-2.16-3a24.82,24.82,0,0,0-6.77,1.65c-.26.09-.13,2,.19,2.91q6.24,18,12.62,36c.78,2.2,1.1,3.82-1.13,5.56-2.9,2.26-3.37,5.49-2.68,9.13A621.78,621.78,0,0,0,378,400.94c8.28,22.77,16.84,45.43,28.1,66.94a104.75,104.75,0,0,0,8.31,13.22,10.42,10.42,0,0,0,5.5,3.62,5.23,5.23,0,0,0,6.75-5.18c-.2-6.73-1.12-13.44-1.74-20.15l-1.16.06q0,6.72-.08,13.44l-1.29.35a44.72,44.72,0,0,1-3.07-5c-5.51-12.17-11-24.33-16.36-36.58-13.94-32.13-25.88-65-34.48-99-1.56-6.19-2.55-12.54-3.76-18.82a8.18,8.18,0,0,1-.17-2.91,31.27,31.27,0,0,1,1.16-3.8l3.06,1.64c-1.11-4.91-4.69-7-11.2-6.19a4.77,4.77,0,0,1,4.33-4.5c2.53-.46,5.19-.8,6.59,2,2.86,5.72,6.11,11.33,8.19,17.34,7.26,21,14.09,42.21,21.07,63.33.17.5.24,1,.43,1.85l-9.46,3.45,1.74,5.13c3-1,5.74-2.08,8.54-2.85,2.49-.69,2.87-2,2.23-4.36-3.57-13.08-6.91-26.23-10.57-39.29-3.25-11.61-6.73-23.15-10.29-34.66a47.21,47.21,0,0,0-3.9-8.93C373.53,295.8,370.11,290.85,363.34,291.31Z"/><path class="cls-1" d="M297.29,241.2c6.26-6.76,13.34-10.67,21.59-11.78,8.68-1.17,15.52,3.71,23.15,9.27.24-2.85.52-4.78.53-6.71,0-3.68-.44-7.38-.07-11,.16-1.49,1.76-3.68,3.06-4a5.82,5.82,0,0,1,5,1.8,29.24,29.24,0,0,1,4,8.39c1.3,4.18,3.41,5.52,7.5,4q9.13-3.5,18.22-7.07c3.52-1.39,4.28-3.2,2.45-6.6a71.43,71.43,0,0,1-7.57-23.75c-.9-6.09-4-11.2-8.35-15.51-1.86-1.84-3.34-1.88-5.35.38-11.19,12.62-25,20-42.21,19.92a138.87,138.87,0,0,1-18.71-1.88c-2.75-.4-3.05,1.35-3.26,2.92-.85,6.57-1.85,13.15-2.09,19.75-.21,5.83.46,11.7.89,17.54A21.51,21.51,0,0,0,297.29,241.2Z"/><path class="cls-1" d="M155,242.75c-.51-3.19-1-7.38-1.91-11.48-.58-2.55-2.28-3.64-5.16-2.7-7.64,2.49-15.41,4.56-23,7.19-5,1.75-5.8,3.69-4,8.79,1,2.94,2.8,5.61,4,8.48a16.69,16.69,0,0,1,1.52,5.37c.37,5.84.12,11.73.76,17.53.7,6.41,3.82,11.83,8,16.78,7.08,8.35,13.94,16.91,20.73,25.5,3.09,3.91,11.17,3.68,13.35-1.07a24.88,24.88,0,0,0,2-10.63c-.16-6.8-1.22-13.58-1.68-20.38-.23-3.55.29-7.16,0-10.71-.54-6.55-2.4-12.54-8-16.81a26.52,26.52,0,0,1-4.3-4.88C155.15,250.82,153.49,247.69,155,242.75Z"/><path class="cls-1" d="M110,52.44c-1.64-.85-3.86-2-4.3-3.5-2.15-7.29-3.87-14.75-1.57-22.37C109.93,7.36,129-3.49,148.64,1c9.71,2.23,17.74,6.71,23.16,15.41,7,11.24,5.34,32.8-13.46,35.79-.06,0-.1.15-.38.58,3.13.54,6.27,1.12,7.43,4.72-11-2.44-12.71-2.24-24.76.19a28.76,28.76,0,0,1-10.94,0c-6.13-1.21-12.15-1.75-18.3-.5l-.55-.7,4.22-2.81C113.12,53.23,111.38,53.17,110,52.44Zm59.24-13c2.75-1.88,3.9-6.44,2.72-9-.83-1.82-2.07-2.74-3.7-1-5.28,5.75-11.77,9.49-19,12.17A4.92,4.92,0,0,0,147,44.34c-.13.33,1.31,1.29,1.87,1.81C156.39,45.07,163.27,43.55,169.24,39.46Zm-14.45-5.6a144.54,144.54,0,0,0,11.75-10.2c1.26-1.27,1.8-3.64,1.9-5.55.06-1.22-1.11-3.38-2-3.56a5,5,0,0,0-4,1.77c-3.84,5.1-7.4,10.41-11,15.67-.66.95-1.16,2-1.74,3l.73,1C151.84,35.28,153.55,34.86,154.79,33.86Zm-12.21,6.26a161.48,161.48,0,0,0,6.93-14.7c.39-.94-.59-2.46-.94-3.71-1.09.47-2.68.62-3.21,1.45q-5.1,7.92-9.76,16.12c-1.18,2.07-.1,3.53,3.37,3.82C139.8,42.45,141.78,41.6,142.58,40.12Zm-32.55,4a70.34,70.34,0,0,0,9.49,4.8c.76.33,1.9-.22,2.86-.36a20,20,0,0,0-.7-3.22c-.21-.53-1-.79-1.46-1.26-4-4.11-7.91-8.23-11.81-12.4a6.67,6.67,0,0,1-.88-2.07C104.28,35.26,105.65,41.29,110,44.11ZM134.77,6.59c-1.2,6.69-2.31,13.39-3.43,20.09a3.12,3.12,0,0,0,0,1.61c.53,1.29,1.19,2.52,1.81,3.77.95-1.06,2.58-2,2.73-3.19.69-5.33,1.06-10.72,1.36-16.1.16-2.95-.05-5.91-.09-8.87L136,3.77A13.46,13.46,0,0,0,134.77,6.59ZM122.51,34.73c.51,2,1.13,4,1.74,5.93.8,2.57,2.72,2.18,4.49,1.44s2.53-2,1.51-4.14c-2.4-5.09-4.5-10.33-6.83-15.45-.32-.7-1.36-1.59-2-1.51s-1.32,1.12-1.89,1.67C120.61,26.94,121.52,30.84,122.51,34.73ZM111,17.16l-1.7.17c-.38,1.73-1.57,3.81-1,5.13,2.69,6.26,7,11.48,11.37,16.62l1.28-.9Q116,27.67,111,17.16ZM151.85,4.73l-.8-.74-5.26,5.13-1.57-5.95h-.81L142.23,17.6A33.85,33.85,0,0,0,151.85,4.73Zm3.75,4.74c-1.67,2.12-3.3,4.28-4.76,6.54a8.2,8.2,0,0,0-.6,2.79c1.2.18,2.58.84,3.56.46,2.68-1.05,5.59-8.82,4.52-12.4A26.56,26.56,0,0,0,155.6,9.47Zm-27.87,9.31,1.2-.34,1-12.35-.39-.25c-.73,1.41-1.46,2.81-2.49,4.81L123.7,5.39l-1.35.55Zm-7-1.21c-.61-2.72-1.64-5.34-2.51-8L116.7,10l1.08,9.15,1.68,1.24C119.92,19.42,120.91,18.36,120.73,17.57Z"/><path class="cls-1" d="M91.91,281.51c2.82-.93,4.44-3.62,3.79-8.06-1-6.87-2.34-13.69-3.55-20.52-.15-.86-.41-1.69-.61-2.53-1.43-5.88-1.48-6,4.47-8,29.29-9.64,58.62-19.17,87.92-28.79,10.93-3.59,21.83-7.3,32.71-11,3.72-1.27,6.06-.75,8,2.77,3.89,7.15,7.49,14.47,11.29,21.67a24.54,24.54,0,0,0,3.39,5.13c.63.68,2.1.58,3.19.83a18.74,18.74,0,0,0,.45-3,5.2,5.2,0,0,0-.61-1.83c-5-12.6-10.1-25.18-15.05-37.8-1.22-3.11-2.86-5.82-6.25-6.44-1.37-.25-3.95.55-4.33,1.52-1.34,3.44-4.09,5.14-7,6.45-9.72,4.33-19.38,8.87-29.37,12.49-27.87,10.1-55.91,19.75-83.85,29.7-3.49,1.24-6,.69-8.33-2.13-2.11-2.56-4.61-4.61-8.21-4.69-4.58-.11-6.42,2.37-4.79,6.64,4.53,11.86,9.21,23.68,13.6,35.6C90.16,273.41,90.87,277.53,91.91,281.51Z"/><path class="cls-1" d="M343.12,331.92c5.05-.09,8.43-4,8.51-10.05,0-.65-.09-1.3-.13-1.95-.44-8-.9-16-1.31-24-.34-6.71-1.92-12.71-7.46-17.33-3.92-3.27-6.4-7.39-5.52-13.15.45-3-.53-6.22-1.25-9.25-.48-2-1.92-2.89-4.26-2.12-6.19,2-12.48,3.71-18.66,5.74-4.64,1.53-5.34,3.17-3.88,7.91a10.31,10.31,0,0,0,1.63,3.88c3.49,3.89,3,8.55,2.89,13.16-.29,9.53,2.33,17.79,9.08,25,5.7,6.05,10.45,13,15.81,19.41C339.65,330.44,341.58,331,343.12,331.92Z"/><path class="cls-1" d="M213.68,188.26a26.28,26.28,0,0,0,2.08-2.88c1.64-3.16,3.23-3.83,6.5-2.7,3.46,1.19,5.41,3.68,6.69,7,4.15,10.95,8.43,21.86,12.73,32.75.83,2.1,2,4.07,3.26,6.57,2.28-4.36,3.31-8.4,1.57-12.69a29.37,29.37,0,0,0-3.42-6.64c-7.64-10.21-10.75-22-11.88-34.35-.93-10.21-3.46-19.72-8.74-28.69-4.42-7.51-4.71-16.39-6.05-24.85-.49-3.11-1.1-6.19-1.65-9.29-.4-2.22-1.42-2.87-3.66-1.89-6.11,2.7-11.94,5.81-16.56,10.75-5.22,5.58-5.61,10.27-1,16.23a45.3,45.3,0,0,1,9.78,25.72C203.91,172.48,208.93,180,213.68,188.26Z"/><path class="cls-1" d="M101.77,215.42a50.19,50.19,0,0,1,.55-6.15c.94-4.54.05-8.68-1.44-13a26.27,26.27,0,0,1-1.06-10.08c.46-6.92,1.46-13.81,2.24-20.71.7-6.21-1.59-11.52-5.15-16.34-5-6.69-16.58-7.46-22.29-1.36-1.05,1.12-1.41,3.5-1.13,5.12,1.53,8.63,3.47,17.18,5,25.81.46,2.57,1,5.59.07,7.87-3.09,8-2,15.54,1,23.13,1.67,4.23,3.28,8.5,5.11,12.67a15.18,15.18,0,0,0,10.68,8.76c3,.78,4.62-.33,5-3.41.46-4.1.7-8.22,1-12.33Z"/><path class="cls-1" d="M166.89,62.6c-4.89,3.21-8.94,5.74-12.84,8.48-3.39,2.38-7.08,3.62-11,2.4-1.89-.58-3.45-2.31-5.08-3.62-.47-.38-.6-1.15-1-1.68-3-4.5-5.05-4.45-7.77.17-3,5.2-7,6.11-12.11,2.71-2.34-1.55-4.58-3.25-7.56-5.38.2,1.92.25,3.23.49,4.5,2.29,12.14,7,23.08,16.5,31.38,7.1,6.2,14.74,6.69,21.9.78C160.5,92.36,165.38,78.76,166.89,62.6Z"/><path class="cls-1" d="M300.18,106.68c-1.63-.54-3.75-2.12-4.08-3.59-1-4.61-2.06-9.44-1.73-14.09.8-11.39,10.55-22.2,21.89-25.29,12.32-3.35,27.26,1.35,34.08,10.72,10.35,14.23,3.17,30.75-14.17,32.63l-.33,0-27.11.85C305.49,107.51,302.69,107.52,300.18,106.68Zm49.38-11.13A8,8,0,0,0,352,90.83c.22-1.23-.81-2.69-1.28-4.06a13.68,13.68,0,0,0-3.12,1.75,41.78,41.78,0,0,1-14.56,8.9c-.9.35-1.47,1.58-2.2,2.4l1.65,1.44C338.83,100.43,344.67,99.22,349.56,95.55Zm-11.35-5c3.18-2.58,6.25-5.32,9.24-8.13a4,4,0,0,0,1.35-2.81,25.76,25.76,0,0,0-1.61-4.9c-1.31.75-3,1.2-3.87,2.31-3.59,4.82-6.93,9.84-10.36,14.78l.9,1.06A25.76,25.76,0,0,0,338.21,90.51Zm-15.43,8c1.46-.27,3.48-.76,4.09-1.83a134.58,134.58,0,0,0,6.18-12.87c.32-.73-.32-2-.77-2.85a2.27,2.27,0,0,0-1.9.27c-3.36,4.9-6.6,9.86-10.14,15.2C321.38,97.4,322.2,98.61,322.78,98.5Zm-24.63-.77c2.83,2.63,6.71,4.14,10.2,6a2,2,0,0,0,1.85-.59,2.53,2.53,0,0,0-.19-2.08c-.33-.63-1.09-1-1.63-1.55L296.79,88.23C295.4,91.61,295.6,95.36,298.15,97.73Zm23.14-31.11C320.14,73.42,319,80.22,318,87c-.11.7.8,1.55,1.25,2.33.75-.65,1.86-1.16,2.17-2a16.81,16.81,0,0,0,1.07-5.06c.23-4.76.29-9.54.36-14.31a9.08,9.08,0,0,0-.56-2.16C321.75,66.25,321.33,66.4,321.29,66.62Zm-9.12,30.45c.2.6,2.47,1,3.55.65.65-.2,1.45-2.14,1.15-2.91-1.73-4.54-3.73-9-5.73-13.4-.25-.55-1.18-1.31-1.54-1.19-.68.23-1.17,1-1.78,1.62C309.28,87.12,310.54,92.16,312.17,97.07Zm-11.42-20-1.48.11c-.27,1.61-1.3,3.68-.66,4.76,2.7,4.61,5.89,8.93,8.91,13.36l1.44-.89Zm27.86-11.69h-.69l-1.58,11.24c3.23-.78,7.71-6.56,8.33-10.9l-4.8,4.51C329.33,68.2,329,66.81,328.61,65.42Zm-14,12.76,1.07-.22.89-10.84-2.34,4.42-2.9-4.37-1,.47Zm-8.17-.73c.09.43,1,.71,1.5,1,.37-.58,1.16-1.29,1-1.72-.61-2-1.48-4-2.26-6l-1.17.31C305.79,73.21,306,75.35,306.41,77.45Z"/><path class="cls-1" d="M387.2,221a8.14,8.14,0,0,0,1.15-1.14c2.6-4.36,6.37-4.29,8.84.3a51.87,51.87,0,0,1,2.24,5.75c3.93,10.08,7.87,20.15,12.34,30.11,2.59-4.05,4.3-8,2.32-12.57a24.12,24.12,0,0,0-2.52-4.9c-6.84-9.13-9.33-19.68-10.33-30.74a49.72,49.72,0,0,0-6.72-21.54c-3.94-6.57-4.27-14.25-5.46-21.62-.43-2.67-.91-5.34-1.44-8-.33-1.61-1.35-2.31-2.84-1.36-4.81,3.06-10,5.72-14.23,9.46-4.45,3.93-4.36,8.27-.73,13a38.45,38.45,0,0,1,8.26,21.5C378.62,207.42,383.07,214.1,387.2,221Z"/><path class="cls-1" d="M282,183.06c-1.55,0-2.21-.07-2.85,0-8.11.59-10.83,3.74-9.42,11.68,1.06,6,2.87,11.79,4,17.75a14.11,14.11,0,0,1-.21,6.93c-1.74,5-2.16,10-.35,15s3.61,10,5.72,14.89a12.23,12.23,0,0,0,8.59,6.93c2.39.63,4.11-.13,4.38-2.86.68-6.92,1.44-13.84,1.91-20.77.1-1.51-.8-3.12-1.39-4.62a18.89,18.89,0,0,1-1.06-10.17,146.46,146.46,0,0,0,1.88-19.13c.11-5.55-2.67-10.24-7-13.74C284.84,183.81,282.89,183.44,282,183.06Z"/><path class="cls-1" d="M346.91,112.79c-3.36,2.16-6.38,4.18-9.49,6.07a20.57,20.57,0,0,1-4.91,2.42c-4.24,1.22-7.07-.18-9.69-4.4-2.39-3.87-4.18-3.87-6.53,0-2.68,4.42-5.87,5.13-10.27,2.21-2.06-1.36-4-2.84-6.81-4.8.35,3.23.44,5.68.91,8.05,1.81,9.25,5.51,17.61,12.37,24.26,7.05,6.83,14.6,7,21.56.13C343,138,347.12,127,347.24,114.49A10.6,10.6,0,0,0,346.91,112.79Z"/><path class="cls-1" d="M268.32,426.54a43.2,43.2,0,0,0,2.32,20.83c1.16,3.26,2.45,4.11,5.93,3.28,7.81-1.84,15.72-3.39,23.29-5.93,2.95-1,5.49-4,7.52-6.68,1.62-2.11.81-4.66-1.17-6.76q-7.59-8.05-14.93-16.33c-3-3.37-14.52-6.37-18.47-4.41a5.13,5.13,0,0,0-2.33,3.16C269.58,417.94,269,422.25,268.32,426.54Z"/><path class="cls-1" d="M226.18,234.92c-2.86-3.13-5.67-5.86-8.06-8.91-3.69-4.73-3.56-5.21-.19-10.07a8.39,8.39,0,0,0,1.24-2.27c.75-2.47,2-5.09-.25-7.34s-4.6-1.05-7-.24C203,209.12,194,212.16,185,215c-2.73.86-3.93,1.88-2.55,4.79,3.8,8.05,7.45,16.16,11.26,24.2a45.71,45.71,0,0,0,3,4.9Z"/><path class="cls-1" d="M432.6,419.29a38.19,38.19,0,0,0,1.76,18c.92,2.72,2.66,3.54,5.27,2.9,6.41-1.58,12.9-2.91,19.16-4.95,2.34-.77,4.42-3,6.08-5s1.23-4.36-.71-6.42c-4.3-4.58-8.49-9.26-12.69-13.93-2.37-2.63-12.3-4.93-15.26-3.26a4.57,4.57,0,0,0-1.87,2.75C433.61,412.65,433.16,416,432.6,419.29Z"/><path class="cls-1" d="M372.63,271.36c4.33-2.21,8.23-4.31,12.23-6.21s8.11-3.59,12.45-5.5c-2.53-2.7-5-5.12-7.21-7.71-3.45-4-3.34-4.66-.47-9a25.62,25.62,0,0,0,3.08-6.39c.78-2.53-.39-3.58-2.85-2.77-9.28,3-18.54,6.13-27.76,9.34-.8.28-1.94,1.86-1.74,2.41A136.38,136.38,0,0,0,372.63,271.36Z"/><path class="cls-1" d="M159.82,334.64c-1.72,8.11-2.79,15.7-.75,23.37a28.53,28.53,0,0,0,1.82,4.49c1.57,3.41,4.13,4.82,7.92,3.92,2.83-.68,5.76-1,8.57-1.8,4.48-1.2,6.42-3.29,6.18-7.9a162.79,162.79,0,0,0-2.14-16.4c-.42-2.78-1.13-5.52-1.8-8.26-.76-3.14-2.2-3.69-4.37-1.43C171,335.06,166,336.3,159.82,334.64Z"/><path class="cls-1" d="M87.84,271.37c-2.4,7.94-2.31,10.24,4.71,14.55A6.49,6.49,0,0,0,95.91,287c5.19-.2,10.37-.55,15.55-.94,3.58-.28,5-2.81,4.68-5.88a105.29,105.29,0,0,0-2.56-15.7c-.37-1.47-2.84-2.82-4.62-3.43-2.88-1-4.24-2.32-4-5.59a80.2,80.2,0,0,0-.06-11.39c-.18-3-1.32-3.59-4.12-2.38-2.09.91-4,2.11-6.11,3.07-1.57.72-1.72,1.67-1.49,3.36q1.91,13.86,3.38,27.76a6.23,6.23,0,0,1-4,6.83c-1.62.67-2.95,1.09-3-1.88C89.62,277.66,88.49,274.52,87.84,271.37Z"/><path class="cls-1" d="M157.48,210.93c-1.53-1.35-2.31-2.41-3.36-2.9a107.73,107.73,0,0,0-12.51-5.4c-9.49-3.08-24.25,2-30.36,10-2.43,3.2-2,10.2,1,13a2.33,2.33,0,0,0,2,.44C128.27,221.19,142.36,216.23,157.48,210.93Z"/><path class="cls-1" d="M285,298.56c-1.14-4.26-2.19-8.2-3.25-12.14l-.95.11c-.25,3-.66,6-.69,8.92,0,3.26,3.7,7.2,7.54,7.39a104.57,104.57,0,0,0,13.58-.56,3.78,3.78,0,0,0,3.75-4.44c-.48-4.62-1.08-9.24-2-13.78-.21-1-1.91-2.13-3.12-2.44-3.36-.87-4.44-2.8-4.1-6.14a73.33,73.33,0,0,0,0-8.12c0-3-1.57-3.23-3.84-2.11-1.65.82-3.31,1.63-4.92,2.52-2.07,1.16-3,2.63-2.43,5.3,1.36,6.24,2.38,12.56,3.41,18.87A6,6,0,0,1,285,298.56Z"/><path class="cls-1" d="M341.64,343c-1.51,7.22-2.5,13.95-.3,20.68,1.82,5.57,3.76,6.64,9.42,5.68,10.69-1.81,12-3.48,10.29-14.25-.75-4.8-1.81-9.56-2.83-14.32-.38-1.76-1.38-3.45-3.27-1.5A12.61,12.61,0,0,1,341.64,343Z"/><path class="cls-1" d="M302.48,252.35l37-12.92c-1.16-1.13-1.79-2.1-2.68-2.55-2.9-1.45-5.9-2.7-8.85-4-10.27-4.65-21.78,2.34-26.69,7.77C298.55,243.62,299,247.46,302.48,252.35Z"/><path class="cls-1" d="M285.48,388.5c-3.13,2.43-5.7,5.15-8.84,6.64-2.31,1.09-5.38.56-8.1.73-.78.05-1.57,0-2.35,0a11.81,11.81,0,0,0,.07,2.15c.66,2.9,1.26,5.82,2.17,8.63a3.44,3.44,0,0,0,2.24,2,8,8,0,0,0,3.76-.76,12.86,12.86,0,0,1,9.78.36c2.08.83,4.49.82,6.75,1.18-.45-2.05-.86-4.12-1.37-6.16-1.12-4.51-2.29-9-3.48-13.5A6.57,6.57,0,0,0,285.48,388.5Z"/><path class="cls-1" d="M221.33,204.72c.15.93.28,1.87.46,2.8.59,3.18.48,6-1.81,8.81-3.06,3.77-2.82,5,.64,8.65,4.1,4.33,8.26,8.63,12.67,12.63,2.94,2.67,4.3,2.31,7-.58C232.25,227.24,229.18,214.63,221.33,204.72Z"/><path class="cls-1" d="M409.49,260.69l-13.83-26.77c.42,4.75-2.45,8-4.6,11.68a4.34,4.34,0,0,0,.33,4,149.93,149.93,0,0,0,11.07,11.48C405.84,264.21,407.09,263.86,409.49,260.69Z"/><path class="cls-1" d="M173.7,313.43c-3.84,7.45-9,12.15-18,8.33.64,3,1.07,5.54,1.77,8a3.84,3.84,0,0,0,1.79,2.1c6.3,3.26,14.65,0,17.42-6.63a2.45,2.45,0,0,0,.31-1.24c-.75-3.5-1.57-7-2.36-10.46Z"/><path class="cls-1" d="M269.69,182.75c-.49-3.71-1.12-7.17-1.39-10.66-1-12.76-.62-25.41,3.94-37.58,4-10.67,10.95-18.33,22.22-21.58.89-.26,1.53-1.41,2.28-2.14-1-.24-2.1-.89-3-.66C280.39,113.56,273,123,269.17,135.54c-4.5,14.6-4.14,29.56-2.37,44.55C267,182,268.07,183,269.69,182.75Z"/><path class="cls-1" d="M387.47,151.17a11.08,11.08,0,0,0,.22-3.15c-2.61-12.29-6.93-23.75-16.25-32.71a33.93,33.93,0,0,0-16.66-9,17.31,17.31,0,0,0-4.12.1l-.25,1.12a8.39,8.39,0,0,0,2.44,1.49c16,3,25,13.83,30.57,28.16C385.17,141.67,386.15,146.5,387.47,151.17Z"/><path class="cls-1" d="M0,534.16l267.59,74.73S664.81,428,594.51,369.88c0,0-51.3-24.54-109.59-17.88,0,0,66-4.27,52,22.48C457.24,423.7,403,452.74,0,534.16Z"/></g></g></svg>