<svg xmlns="http://www.w3.org/2000/svg" viewBox="0 0 200.22 246.91"><defs><style>.cls-1{fill:none;stroke:#1e1e1e;stroke-linecap:round;stroke-linejoin:round;stroke-width:8px;}.cls-2{fill:#1e1e1e;}</style></defs><g id="Layer_2" data-name="Layer 2"><g id="Layer_1-2" data-name="Layer 1"><path class="cls-1" d="M17.79,92.54c-3.43,16.73-9.73,33.84-7.63,51.22"/><path class="cls-1" d="M83.21,60.69c-2.45.65-4.24.1-.3.51,13.77,1.43,27.61,6.33,41.13,9.4,2.38.54,4.71.75,6.71,2.26,1,.75,1.61,2.41,0,1"/><path class="cls-1" d="M94,154.22c-2,.54-8,4.3-8.9,6.26-2.07,4.73,2.69,12.34,4.67,17.42"/><path class="cls-1" d="M91.25,154.79c4.27-1.14,13.82-8.71,16.75-4.79,5.56,5.56,6.64,5,10.76,11.24"/><path class="cls-1" d="M125,40a100.67,100.67,0,0,1,42.23,9.33"/><rect class="cls-2" x="171" y="129" width="18" height="58" rx="5.68" transform="translate(-54.88 111.17) rotate(-30)"/><rect class="cls-2" x="111.72" y="151.29" width="21.52" height="98.94" rx="5.68" transform="translate(-83.97 88.14) rotate(-30)"/><line class="cls-1" x1="74.94" y1="118.1" x2="94.03" y2="154.22"/><circle class="cls-1" cx="32" cy="47" r="28"/><circle class="cls-1" cx="89.5" cy="21.5" r="17.5"/><path class="cls-1" d="M158.36,74.87S188,52.75,188,74.87"/><path class="cls-1" d="M75,118s71.32-46.29,71.32-24.16"/><path class="cls-1" d="M73.76,118.06s-76.36,37.4-57.38,48.77"/></g></g></svg>