<svg xmlns="http://www.w3.org/2000/svg" viewBox="0 0 483.67 601.62"><defs><style>.cls-1{fill:#1e1e1e;}</style></defs><g id="Layer_2" data-name="Layer 2"><g id="Layer_1-2" data-name="Layer 1"><path class="cls-1" d="M30.17,374.6a15,15,0,0,1-14.88-13.21c-4.21-35,4-68.48,12-100.88,2.56-10.43,5-20.29,7-30.21a15,15,0,0,1,29.39,6c-2.15,10.5-4.76,21.11-7.28,31.36-7.66,31.16-14.89,60.59-11.33,90.13A15,15,0,0,1,32,374.49,16,16,0,0,1,30.17,374.6Z"/><path class="cls-1" d="M329.66,203.6c-3.49,0-7.65-1.23-12.1-5.14a15.29,15.29,0,0,1-2.68-3.09c-1.06-.26-2.25-.5-3.52-.76s-2.47-.49-3.72-.78c-11.47-2.6-23.09-5.75-34.33-8.79C251.72,179.2,229.39,173.16,208,171c-1.46-.15-2.49-.23-3.16-.28h-.05c-5.56,0-9.71-1.92-12.75-5.81a15,15,0,0,1-1.31-16.5c2-3.61,6-7.74,14.12-7.71-.26,0-.51,0-.74,0a10.53,10.53,0,0,0,2.28-.35,14.94,14.94,0,0,1,11.64,1.66c21.41,2.87,42.57,8.59,63.09,14.14,11.46,3.1,22.28,6,33.15,8.5,1,.22,2,.42,3,.62,5.6,1.13,12.58,2.53,19.3,7.62,4.49,3.4,9.34,10.08,8.2,17.73a15.33,15.33,0,0,1-15.12,13Z"/><path class="cls-1" d="M218.5,470.05a14.72,14.72,0,0,1-13.71-9.37c-1.14-2.91-2.76-6.4-4.46-10.1-7.21-15.6-16.18-35-8.87-51.72,5.35-12.2,29-24.73,35.49-26.48a14.72,14.72,0,0,1,7.74,28.4c-3.51,1.19-13.34,7.44-16.51,10.67-1,5.36,5.59,19.7,8.86,26.79,1.9,4.11,3.7,8,5.16,11.73a14.74,14.74,0,0,1-13.7,20.08Z"/><path class="cls-1" d="M417.46,141.76a15,15,0,0,1-6.29-1.39,231.57,231.57,0,0,0-97.83-21.61,15,15,0,0,1,0-30,261.35,261.35,0,0,1,110.42,24.38,15,15,0,0,1-6.3,28.62Z"/><rect class="cls-1" x="398.18" y="294.34" width="39.09" height="155.62" rx="13.75" transform="translate(-130.11 258.72) rotate(-30)"/><rect class="cls-1" x="271.59" y="367.17" width="53.06" height="243.95" rx="17.55" transform="translate(-204.63 214.6) rotate(-30)"/><path class="cls-1" d="M238.85,399.61A15,15,0,0,1,225.33,392l-49.85-87.52a15,15,0,1,1,26.06-14.85l49.85,87.52a15,15,0,0,1-5.61,20.46A14.85,14.85,0,0,1,238.85,399.61Z"/><path class="cls-1" d="M84,205.06a84,84,0,1,1,84-84A84.13,84.13,0,0,1,84,205.06ZM84,67a54,54,0,1,0,54,54A54.1,54.1,0,0,0,84,67Z"/><path class="cls-1" d="M225.81,116.3A58.15,58.15,0,1,1,284,58.15,58.22,58.22,0,0,1,225.81,116.3Zm0-86.3A28.15,28.15,0,1,0,254,58.15,28.18,28.18,0,0,0,225.81,30Z"/><path class="cls-1" d="M468.67,204.74a15,15,0,0,1-15-15c0-6-1.19-8.53-1.6-9h0s-5.94-2.47-24.67,7a176.41,176.41,0,0,0-22.83,14,15,15,0,0,1-17.94-24.05,207.13,207.13,0,0,1,26.27-16.24c22.48-11.53,39.7-14,52.67-7.47,8.26,4.14,18.11,13.7,18.11,35.73A15,15,0,0,1,468.67,204.74Z"/><path class="cls-1" d="M190.07,311.08a15,15,0,0,1-8.18-27.58c1.43-.93,35.44-22.95,74-43.22,74.34-39.09,98.23-36.31,110.73-29.52,5.34,2.9,14.3,10.1,14.3,25.75a15,15,0,0,1-30,.31c-5-.68-24.33.05-82.24,30.63-36.88,19.48-70.11,41-70.45,41.21A14.89,14.89,0,0,1,190.07,311.08Z"/><path class="cls-1" d="M45.52,431.48a14.78,14.78,0,0,1-7.69-2.13c-13.43-8-15-19.43-14.74-25.5.6-14.22,10.48-36.14,82.22-79.82,37.2-22.65,73.57-40.52,75.1-41.27a15,15,0,0,1,13.19,26.95c-.35.17-36,17.71-71.71,39.35C66,383,55.48,399.17,53.5,403.77a15,15,0,0,1-8,27.71Z"/><path class="cls-1" d="M316.83,418.68a14.72,14.72,0,0,1-20.51-3.54c-2.31-3.28-4.56-6.91-6.95-10.76-4.1-6.64-12.42-20.08-17.46-22.16-4.44.86-15.07,5.62-18,7.88A14.72,14.72,0,0,1,234.48,368c5.06-4.48,28.53-17.27,41.65-15,18,3.1,29.22,21.29,38.27,35.91,2.14,3.46,4.17,6.73,6,9.29a14.67,14.67,0,0,1-3.54,20.5Z"/></g></g></svg>